<svg version="1" xmlns="http://www.w3.org/2000/svg" width="682.667" height="682.667" viewBox="0 0 512.000000 512.000000"><path d="M0 231.5V463h512V0H0v231.5zm61.5-93.3c8.4 7.8 3.6 21.1-7.6 21.1-7.3 0-12.6-6.1-11.6-13.6 1.3-9.8 12.2-14 19.2-7.5zM82 242v107h3c1.7 0 3 .5 3 1 0 .7-2.7 1-7.2.8-6.8-.3-7.3-.4-7.2-2.6.1-2.4-1.1-2.9-2.3-.9-4.4 7.2-18 5.7-25-2.7-7.3-8.9-6.8-20.9 1.3-29 7.3-7.3 18.7-7.6 24.1-.6 1 1.2 1.2-17.5 1.3-88.3V137h-2.9c-1.7 0-3.3-.5-3.6-1-.4-.6 2.3-1 7.4-1H82v107zm143-88c0 15.8-.2 19-1.4 19-.8 0-2-1.7-2.7-3.8-4.5-13.9-13-24.6-22.3-28.1-5.2-1.9-7.6-2.1-29.1-2.1H146v69l2.7.6c1.5.4 7.8.3 14-.2 10.1-.9 11.7-1.3 15.5-4 4.9-3.4 9.1-10.8 11.8-20.6 1.1-4.1 2.3-6.4 3.4-6.6 1.5-.3 1.6 2.6 1.6 33.2 0 22.6-.3 33.7-1.1 34.1-1.5 1-1.9.4-3.8-7.2-2.6-10.1-5.3-15.4-9.8-19.5-5.1-4.5-11.4-6-24.4-5.6l-9.4.3v74l11.9.5c8.1.3 12.1.9 12.3 1.7.3.7-.6 1.5-1.9 1.8-1.3.3-17.1.4-35.3.3-30.5-.3-33-.4-33.3-2.1-.3-1.5.8-1.7 11.7-1.7H124V139h-12c-11.3 0-12-.1-12-2 0-2 .7-2 62.5-2H225v19zm91.8-17.3c-.3 1.6-1.8 1.8-12.1 2.1l-11.7.3V287h12.1c10.9 0 12 .2 11.7 1.7-.3 1.7-2.8 1.8-35.3 1.8s-35-.1-35.3-1.8c-.3-1.5.8-1.7 11.7-1.7H270V139.1l-11.7-.3c-10.3-.3-11.8-.5-12.1-2.1-.3-1.6 1.9-1.7 35.3-1.7s35.6.1 35.3 1.7zm78 0c-.3 1.6-1.7 1.8-9.8 2-5.2.1-9.4.5-9.3 1 .2.9 1.6 3.4 17.8 29.8 5.4 8.8 11 17.9 12.4 20.2 1.4 2.4 2.9 4.3 3.2 4.3.3 0 3-3.9 5.9-8.8 2.9-4.8 10.2-16.7 16.1-26.4 6-9.8 11-18.2 11.1-18.8.2-.8-2.8-1.2-9.2-1.3-8.2-.2-9.5-.4-9.8-2-.3-1.6 1.1-1.7 22.5-1.5 19.5.3 22.8.5 22.8 1.8 0 1.2-2.1 1.6-10.7 2l-10.8.5-17.5 29c-9.6 15.9-17.5 29.5-17.5 30.1 0 .6 4.2 7.8 9.3 16.1 5 8.3 17.1 28 26.7 43.7l17.5 28.6h9.3c8.4 0 9.3.2 9 1.7-.3 1.7-2.7 1.8-32.8 1.8-30.1 0-32.5-.1-32.8-1.8-.3-1.5.7-1.7 9.7-1.7 5.6 0 10.1-.2 10.1-.4 0-.4-32.8-54.4-39.7-65.5-1.3-1.9-1.7-2.1-2.8-1-1.4 1.5-38.3 63.1-39.1 65.4-.5 1.3 1 1.5 9.6 1.5 9.1 0 10.1.2 9.8 1.7-.3 1.7-2.2 1.8-22.8 1.8s-22.5-.1-22.8-1.8c-.3-1.5.7-1.7 10.1-1.7h10.5l21.6-36.1c12-19.9 21.6-36.5 21.4-36.9-.2-.4-10.4-17.5-22.8-37.8l-22.5-37.1-9-.3c-7.6-.3-9-.6-9.3-2.1-.3-1.6 1.7-1.7 32.3-1.7 30.6 0 32.6.1 32.3 1.7zm-330.6 26c2.2 2 2.4 7.6.2 9.7-1.2 1.2-3.7 1.6-11 1.6-8.7 0-9.4.1-9.4 2 0 1.1-.4 2-1 2-.5 0-1-.9-1-2 0-1.6-.7-2-3-2-2.5 0-3-.4-3-2.5s.5-2.5 3-2.5c2.8 0 3-.3 3-3.6 0-2.1.4-3.3 1-2.9.6.3 1 1.9 1 3.6v2.9h9.9c8.5 0 10-.2 10.6-1.7.4-1.2-.1-2.4-1.4-3.5-2.1-1.6-2.7-2.8-1.4-2.8.3 0 1.5.7 2.5 1.7zm-19.8 31.7c.6.7 5.4 3 10.6 5 5.2 2.1 9.9 4.1 10.3 4.6.5.4-2.4 2-6.5 3.6-4 1.5-7.7 3.1-8.2 3.6-.5.4.8 1.5 3 2.4 11.5 4.7 12.9 5.5 11.4 6.4-.8.5-5.7 2.4-10.9 4.2-6.4 2.2-9.5 3.8-9.9 5-1 3.8-2.2 1.5-2.2-4.2 0-3.3.4-6 1-6s1 .7 1 1.5c0 1.9.3 1.9 8-.9l6.5-2.4-5.8-2.6c-5.4-2.4-8.7-2.6-8.7-.5 0 .5-.4.9-1 .9-.5 0-1-2.3-1-5 0-4.6 1.4-6.9 2.2-3.7.2 1.1 1.8.8 7.1-1.1 3.7-1.4 6.4-2.8 6-3.2-.8-.7-11.8-5-12.8-5-.3 0-.5.9-.5 2.1 0 1.1-.4 1.7-1 1.4-1.1-.7-1.4-7.5-.4-7.5.4 0 1.2.6 1.8 1.4zm17.7 42.5c3.2 3.2 3.9 4.5 3.9 7.9 0 4.8-3.6 9.7-8.7 11.9-3 1.2-3.8 1.2-7.8-.6-12.4-5.5-8.8-22.9 4.9-23.1 3.2 0 4.5.7 7.7 3.9zm2.8 30.3c0 4.3-.3 5.6-.8 4.3-.8-1.8-1.6-2-10.4-1.7-10.6.4-12 1.3-9.6 6.5 1.6 3.5 4.9 4.7 12.9 4.7 5.7 0 6.9-.3 7.3-1.8.3-.9.5 1.2.5 4.8.1 4.8-.2 5.9-.8 4.2-.9-2.2-1.2-2.2-17.8-2.2-16.5 0-16.9 0-18 2.2-1 2-1.1 1.7-.9-2.2l.2-4.5 8.8-.3c8.7-.3 10-.9 7.2-3.2-2.1-1.8-1.9-8.3.4-11.1 1.7-2.1 2.9-2.4 11-2.7 7-.3 9.1-.7 9.1-1.8 0-.8.2-1.4.5-1.4s.5 2.8.4 6.2zm61 45.8c3.5 2.4 7 8.9 7.1 12.7 0 2.3-.1 2.3-14 2.3h-14v6c0 11 3.8 16 12 16 5.6 0 10.8-3 12.3-7 1.2-3 2.7-4 2.7-1.8 0 2.7-3.9 7.5-7.3 9.1-4.9 2.4-13.1 2.2-18.5-.4-15.1-7.3-14.6-29.8.8-37.7 5.9-3 14.1-2.7 18.9.8zm49.5-1.5c1.6.9 3.6 2.5 4.4 3.6 1.4 2 1.5 2 4.8-1.2 2.9-2.8 4.3-3.3 9.1-3.7 4.9-.3 6.4 0 9.3 2 4.8 3.3 5.9 7.7 5.8 23.3v13l3.1.3c1.7.2 3.1.7 3.1 1.3 0 .5-4.8.9-11 .9-6.7 0-11-.4-11-1s1.6-1 3.5-1h3.5v-16.7c0-14.1-.3-16.9-1.7-18.5-3.2-3.6-11.2-1.5-14.9 3.9-1.6 2.4-2 5.1-2.2 17l-.4 14.3h3.6c2 0 3.6.4 3.6 1s-4.3 1-11 1-11-.4-11-1 1.6-1 3.5-1h3.5v-16.3c0-13.1-.3-16.7-1.6-18.5-1.9-2.8-5.8-2.9-10.1-.2-5.5 3.3-6.7 6.9-7.1 21.7l-.4 13.3h3.6c2 0 3.6.4 3.6 1s-4.3 1-11 1-11-.4-11-1 1.6-1 3.5-1h3.5v-36h-3.5c-1.9 0-3.5-.5-3.5-1 0-.6 3.2-1 7.5-1h7.5v3.7l.1 3.8 2.1-2.9c4-5.3 13.1-7.2 19.2-4.1zm74.9-.2c14.9 6.3 18.4 25.2 6.5 35.2-1.8 1.6-4.7 3.4-6.5 4.2-8.4 3.5-19.9-.3-25.6-8.5-2.8-4.1-3.2-5.5-3.2-11.2 0-5.5.4-7.1 2.9-10.8 5.8-8.5 17.3-12.5 25.9-8.9zm51.6.3c8.4 3.3 9.9 13.4 2 13.4-3.9 0-5.2-2.1-4-6.4 1.3-4.8-.5-6.6-6.5-6.6-8 0-11.4 5.9-11.4 20 0 8.3 2.4 15.1 5.8 16.9 3.3 1.7 10.4 1.3 13.9-.9 1.8-1 4-3.4 5-5.2 1.2-2.4 1.8-2.9 2.1-1.6.5 2.3-2.4 6.4-6.3 8.8-4.6 2.8-12.5 2.7-19.1-.4-19.6-9.1-12-39.5 9.8-39.6 2.6 0 6.5.7 8.7 1.6zm44.4-.5c3.1 1.6 3.7 2.8 3.7 7.1 0 3.2-.4 3.9-2.7 4.4-4.7 1.2-6.5-1.2-4.9-6.3.9-3-2.1-4.7-5.4-3-4.8 2.4-6.5 8-6.8 22.4l-.4 13.3h4.1c2.3 0 4.1.4 4.1 1s-4.5 1-11.5 1-11.5-.4-11.5-1 1.6-1 3.5-1h3.5v-36h-3.5c-1.9 0-3.5-.5-3.5-1 0-.6 3.2-1 7.5-1h7.5v6.2l4-3.6c4.3-3.8 8.2-4.6 12.3-2.5zm36 2.7l3.2 3.2.3 15.8c.2 10.2.7 15.9 1.5 16.4.6.4 2.5.4 4.2.2 2.9-.5 2.9-.5 1.1 1-1.1.9-3.9 1.6-6.2 1.6-3.4 0-4.7-.5-6.2-2.5l-2-2.6-3.8 2.6c-4.7 3.2-12.3 3.4-17.1.5-3-1.8-3.3-2.4-3.3-6.7 0-6.4 2.3-8.6 12.7-11.9 10-3.2 11.8-5.1 11.1-11.9-.7-5.9-2.2-7.5-6.9-7.5s-7.3 2.3-6.4 5.7c1 4.3-.3 6.3-4 6.3-2.8 0-3.6-.5-4.1-2.4-.8-3.4 2.1-8.5 5.9-10.2 2.1-.9 5.6-1.3 10-1.1 6.1.2 7 .6 10 3.5zm46.2-1.9c5 2.2 7.3 6.1 5.9 9.9-.7 1.9-1.7 2.8-3.7 3-4.2.5-5.8-1.3-5.1-5.9.4-2.5.2-4.4-.6-5.4-1.5-1.8-8.2-2-11.2-.4-7.8 4.2-7.8 31.6 0 35.8 3.3 1.7 10.4 1.3 13.9-.9 1.8-1 4-3.4 4.9-5.2 1-1.8 1.9-2.7 2.1-2 .8 2.1-3 7.4-6.7 9.4-6.5 3.6-20 .9-25.3-5-6.3-7-6-20.4.6-27.9 6.1-7 16.8-9.3 25.2-5.4zm32 .1c-.3.5-1.9 1-3.6 1-1.6 0-2.9.3-2.9.7 0 1.8 9.7 24.7 10.6 25 .5.1 3-4.8 5.6-11 6.8-16.2 6.6-14.7 2.4-14.7-2 0-3.6-.5-3.6-1 0-.6 3.2-1 7.5-1 7.2 0 10.5 1.5 4.8 2.2-2.9.3-2.8 0-17.7 34.8-.8 1.9-3.2 7.8-5.2 13-4.6 11.5-8.4 16-13.8 16-4.1 0-8.6-3.6-8.6-6.8 0-3.2 2.4-5.4 5.5-5 2.8.3 3 .6 3 4.8 0 3.4.4 4.5 1.7 4.8 2.8.5 6-3.9 10.1-13.7l3.7-9.2-7.8-19.2c-7.7-19.1-7.7-19.2-10.9-19.5-1.8-.2-3.3-.7-3.3-1.3 0-.5 5-.9 11.6-.9 7.4 0 11.3.4 10.9 1z"/><path d="M45 143c-2.6 2.6-2.5 6.2.1 8.6 1.7 1.5 3.6 1.9 9.1 1.9 6.1 0 7.2-.3 8.9-2.4 2.4-3 2.4-5.6-.1-8.1-1.6-1.6-3.3-2-9-2s-7.4.4-9 2zM55.3 313.5c-3.1 2.1-4.3 7.4-4.3 18.3 0 14.1 2.4 18.2 10.7 18.2 8.1 0 11.3-5.4 11.3-19.2 0-9.8-1.4-14.6-5.1-17.2-3-2-9.8-2.1-12.6-.1zM48.8 238.7c-5.2.8-7.6 7.4-4 10.6 4.3 3.9 16.9 2.9 19.3-1.5 1.4-2.5.4-6.5-1.9-7.7-2.2-1.2-9.9-2-13.4-1.4zM109.2 314.3c-2.1 2.2-4.2 7.5-4.2 10.4 0 1 2.4 1.3 9 1.3h9v-4.8c0-6.7-2-9.2-7.4-9.2-3.2 0-4.8.6-6.4 2.3zM236.1 313.6c-3.6 2.6-5.1 7.5-5.1 16.6 0 14.6 3 19.8 11.6 19.8 6 0 7.2-.7 9.6-5.4 1.6-3.1 2.1-6.1 2.2-12.1.1-10.2-.8-14.6-3.9-17.9-1.9-2.1-3.3-2.6-7.2-2.6-2.9 0-5.8.7-7.2 1.6zM371 332.1c-6.7 3.2-9 5.6-9 9.9 0 5.1 2 7.4 6.3 7.4 6.3 0 9.7-5.4 9.7-15.2 0-4.9-.6-5-7-2.1z"/></svg>