<svg xmlns="http://www.w3.org/2000/svg" xmlns:xlink="http://www.w3.org/1999/xlink" width="411" height="390" viewBox="0 0 411 390"><defs><path id="b6pha" d="M782.25 990H682.5c-15.74 0-28.5 12.726-28.5 28.424v227.394c0 15.698 12.76 28.424 28.5 28.424h171c15.74 0 28.5-12.726 28.5-28.424v-156.333z"/><path id="b6phb" d="M782.25 990v99.485H882"/><path id="b6phc" d="M860 1166.11c0-14.972 12.138-27.11 27.11-27.11s27.11 12.138 27.11 27.11-12.138 27.11-27.11 27.11-27.11-12.138-27.11-27.11z"/><path id="b6phd" d="M921.002 1200.002l-14.742-14.742"/><path id="b6phe" d="M516 1055.67c0-25.223 20.447-45.67 45.67-45.67 25.223 0 45.67 20.447 45.67 45.67 0 25.223-20.447 45.67-45.67 45.67-25.223 0-45.67-20.447-45.67-45.67z"/><path id="b6phf" d="M617.998 1111.998l-24.358-24.358"/><path id="b6phg" d="M668 1339.22c0-15.033 12.187-27.22 27.22-27.22s27.22 12.187 27.22 27.22-12.187 27.22-27.22 27.22-27.22-12.187-27.22-27.22z"/><path id="b6phh" d="M730.002 1374.002l-15.122-15.122"/></defs><g><g transform="translate(-513 -987)"><g><use fill="#fff" fill-opacity="0" stroke="#373737" stroke-linecap="round" stroke-linejoin="round" stroke-miterlimit="50" stroke-width="5" xlink:href="#b6pha"/></g><g><use fill="#fff" fill-opacity="0" stroke="#373737" stroke-linecap="round" stroke-linejoin="round" stroke-miterlimit="50" stroke-width="5" xlink:href="#b6phb"/></g></g><g transform="translate(-513 -987)"><g><use fill="#fff" fill-opacity="0" stroke="#fff" stroke-linecap="round" stroke-linejoin="round" stroke-miterlimit="50" stroke-width="5" xlink:href="#b6phc"/></g><g><use fill="#fff" fill-opacity="0" stroke="#fff" stroke-linecap="round" stroke-linejoin="round" stroke-miterlimit="50" stroke-width="5" xlink:href="#b6phd"/></g></g><g transform="translate(-513 -987)"><g><use fill="#fff" fill-opacity="0" stroke="#373737" stroke-linecap="round" stroke-linejoin="round" stroke-miterlimit="50" stroke-width="5" xlink:href="#b6phe"/></g><g><use fill="#fff" fill-opacity="0" stroke="#373737" stroke-linecap="round" stroke-linejoin="round" stroke-miterlimit="50" stroke-width="5" xlink:href="#b6phf"/></g></g><g transform="translate(-513 -987)"><g><use fill="#fff" fill-opacity="0" stroke="#373737" stroke-linecap="round" stroke-linejoin="round" stroke-miterlimit="50" stroke-width="5" xlink:href="#b6phg"/></g><g><use fill="#fff" fill-opacity="0" stroke="#373737" stroke-linecap="round" stroke-linejoin="round" stroke-miterlimit="50" stroke-width="5" xlink:href="#b6phh"/></g></g></g></svg>